<svg width="842" height="391" viewBox="0 0 842 391" fill="none" xmlns="http://www.w3.org/2000/svg">
<path d="M194.425 29.7685C222.678 29.6325 248.705 47.5779 267.851 77.4605C286.977 107.312 298.999 148.775 299.22 194.766C299.442 240.757 287.819 282.333 268.981 312.368C250.124 342.434 224.271 360.629 196.018 360.765C167.765 360.901 141.738 342.955 122.593 313.073C103.467 283.221 91.4442 241.758 91.2228 195.767C91.0014 149.776 102.624 108.2 121.462 78.1653C140.319 48.0997 166.172 29.9045 194.425 29.7685Z" stroke="url(#paint0_linear_0_1)" stroke-width="5"/>
<path d="M29.7307 197.005C29.434 168.753 47.2311 142.624 77.0044 123.309C106.747 104.013 148.14 91.7553 194.129 91.2724C240.119 90.7894 281.76 102.175 311.902 120.842C342.074 139.528 360.416 165.277 360.712 193.529C361.009 221.781 343.212 247.909 313.439 267.225C283.696 286.52 242.303 298.778 196.314 299.261C150.325 299.744 108.683 288.358 78.5416 269.691C48.3693 251.005 30.0274 225.256 29.7307 197.005Z" stroke="url(#paint1_linear_0_1)" stroke-width="5"/>
<path d="M315.417 309.036C295.994 329.555 265.039 335.972 230.207 329.167C195.412 322.368 157.131 302.413 123.729 270.797C90.3276 239.181 68.3009 202.053 59.6029 167.683C50.8961 133.278 55.6045 102.017 75.0265 81.4975C94.4486 60.9784 125.404 54.5613 160.236 61.3665C195.031 68.1647 233.312 88.1203 266.714 119.736C300.115 151.352 322.142 188.48 330.84 222.85C339.547 257.255 334.839 288.517 315.417 309.036Z" stroke="url(#paint2_linear_0_1)" stroke-width="5"/>
<path d="M81.5954 315.597C61.0533 296.199 54.5993 265.251 61.3631 230.412C68.12 195.608 88.0301 157.303 119.606 123.864C151.182 90.425 188.284 68.3541 222.644 59.6154C257.039 50.8677 288.306 55.5388 308.848 74.9365C329.39 94.3342 335.844 125.282 329.08 160.122C322.323 194.925 302.413 233.23 270.837 266.669C239.261 300.108 202.159 322.179 167.799 330.918C133.405 339.666 102.138 334.995 81.5954 315.597Z" stroke="url(#paint3_linear_0_1)" stroke-width="5"/>
<path d="M167.424 248.191L167.708 149.189L247.803 198.92L167.424 248.191Z" stroke="url(#paint4_linear_0_1)" stroke-width="5"/>
<path d="M645.425 29.7685C673.678 29.6325 699.705 47.5779 718.851 77.4605C737.977 107.312 749.999 148.775 750.22 194.766C750.442 240.757 738.819 282.333 719.981 312.368C701.124 342.434 675.271 360.629 647.018 360.765C618.765 360.901 592.738 342.955 573.593 313.073C554.467 283.221 542.444 241.758 542.223 195.767C542.001 149.776 553.624 108.2 572.462 78.1653C591.319 48.0997 617.172 29.9045 645.425 29.7685Z" stroke="white" stroke-width="5"/>
<path d="M480.731 197.005C480.434 168.753 498.231 142.624 528.004 123.309C557.747 104.013 599.14 91.7553 645.13 91.2724C691.119 90.7894 732.76 102.175 762.902 120.842C793.074 139.528 811.416 165.277 811.713 193.529C812.009 221.781 794.212 247.909 764.439 267.225C734.696 286.52 693.303 298.778 647.314 299.261C601.325 299.744 559.683 288.358 529.542 269.691C499.369 251.005 481.027 225.256 480.731 197.005Z" stroke="white" stroke-width="5"/>
<path d="M766.417 309.036C746.994 329.555 716.039 335.972 681.207 329.167C646.412 322.368 608.131 302.413 574.729 270.797C541.328 239.181 519.301 202.053 510.603 167.683C501.896 133.278 506.604 102.017 526.027 81.4975C545.449 60.9784 576.404 54.5612 611.236 61.3665C646.031 68.1647 684.312 88.1203 717.714 119.736C751.115 151.352 773.142 188.48 781.84 222.85C790.547 257.255 785.839 288.517 766.417 309.036Z" stroke="white" stroke-width="5"/>
<path d="M532.595 315.597C512.053 296.199 505.599 265.251 512.363 230.412C519.12 195.608 539.03 157.303 570.606 123.864C602.182 90.425 639.284 68.3541 673.644 59.6154C708.039 50.8677 739.306 55.5388 759.848 74.9365C780.39 94.3342 786.844 125.282 780.08 160.122C773.323 194.925 753.413 233.23 721.837 266.669C690.261 300.108 653.159 322.179 618.799 330.918C584.405 339.666 553.138 334.995 532.595 315.597Z" stroke="white" stroke-width="5"/>
<path d="M618.424 248.191L618.708 149.189L698.803 198.92L618.424 248.191Z" stroke="white" stroke-width="5"/>
<defs>
<linearGradient id="paint0_linear_0_1" x1="194.413" y1="27.2686" x2="196.03" y2="363.265" gradientUnits="userSpaceOnUse">
<stop stop-color="#00D9FF"/>
<stop offset="1" stop-color="#0070F0"/>
</linearGradient>
<linearGradient id="paint1_linear_0_1" x1="27.2308" y1="197.031" x2="363.212" y2="193.503" gradientUnits="userSpaceOnUse">
<stop stop-color="#00D9FF"/>
<stop offset="1" stop-color="#0070F0"/>
</linearGradient>
<linearGradient id="paint2_linear_0_1" x1="317.232" y1="310.754" x2="73.2109" y2="79.7789" gradientUnits="userSpaceOnUse">
<stop stop-color="#00D9FF"/>
<stop offset="1" stop-color="#0070F0"/>
</linearGradient>
<linearGradient id="paint3_linear_0_1" x1="79.879" y1="317.415" x2="310.564" y2="73.1189" gradientUnits="userSpaceOnUse">
<stop stop-color="#00D9FF"/>
<stop offset="1" stop-color="#0070F0"/>
</linearGradient>
<linearGradient id="paint4_linear_0_1" x1="194.411" y1="136.434" x2="194.053" y2="261.099" gradientUnits="userSpaceOnUse">
<stop stop-color="#00C8FF"/>
<stop offset="1" stop-color="#006CB9"/>
</linearGradient>
</defs>
</svg>
